HIERARCHY
ROOT Hips
{
  OFFSET 19.8499 43.4319 8.06064
  CHANNELS 6 Xposition Yposition Zposition Zrotation Xrotation Yrotation
  JOINT Spine
  {
    OFFSET 0 9.92346 -1.22733
    CHANNELS 6 Xposition Yposition Zposition Zrotation Xrotation Yrotation
    JOINT Spine1
    {
      OFFSET -0.000138865 11.6454 -1.42234
      CHANNELS 6 Xposition Yposition Zposition Zrotation Xrotation Yrotation
      JOINT Spine2
      {
        OFFSET 9.14407e-005 13.3602 -1.62646
        CHANNELS 6 Xposition Yposition Zposition Zrotation Xrotation Yrotation
        JOINT Neck
        {
          OFFSET 2.52021e-005 15.0325 0.792905
          CHANNELS 6 Xposition Yposition Zposition Zrotation Xrotation Yrotation
          JOINT Head
          {
            OFFSET 0 10.3218 3.14243
            CHANNELS 6 Xposition Yposition Zposition Zrotation Xrotation Yrotation
            End Site
            {
              OFFSET 0.000154173 18.4747 6.6364
            }
          }
        }
        JOINT LeftShoulder
        {
          OFFSET 6.10582 9.11042 0.705551
          CHANNELS 6 Xposition Yposition Zposition Zrotation Xrotation Yrotation
          JOINT LeftArm
          {
            OFFSET 12.655 -0.265934 -2.60092
            CHANNELS 6 Xposition Yposition Zposition Zrotation Xrotation Yrotation
            JOINT LeftForeArm
            {
              OFFSET 27.4047 3.91267e-005 0
              CHANNELS 6 Xposition Yposition Zposition Zrotation Xrotation Yrotation
              JOINT LeftHand
              {
                OFFSET 27.6145 2.89518e-005 1.96466e-005
                CHANNELS 6 Xposition Yposition Zposition Zrotation Xrotation Yrotation
                JOINT LeftHandMiddle1
                {
                  OFFSET 12.7755 1.3342e-005 2.04185e-005
                  CHANNELS 6 Xposition Yposition Zposition Zrotation Xrotation Yrotation
                  JOINT LeftHandMiddle2
                  {
                    OFFSET 3.61397 0 0
                    CHANNELS 6 Xposition Yposition Zposition Zrotation Xrotation Yrotation
                    JOINT LeftHandMiddle3
                    {
                      OFFSET 3.45976 0 -2.64197e-005
                      CHANNELS 6 Xposition Yposition Zposition Zrotation Xrotation Yrotation
                      End Site
                      {
                        OFFSET 3.68019 0 3.27692e-005
                      }
                    }
                  }
                }
                JOINT LeftHandThumb1
                {
                  OFFSET 3.78881 -2.167 3.00309
                  CHANNELS 6 Xposition Yposition Zposition Zrotation Xrotation Yrotation
                  JOINT LeftHandThumb2
                  {
                    OFFSET 3.67544 -2.12201 2.12201
                    CHANNELS 6 Xposition Yposition Zposition Zrotation Xrotation Yrotation
                    JOINT LeftHandThumb3
                    {
                      OFFSET 3.39436 -1.95974 1.95979
                      CHANNELS 6 Xposition Yposition Zposition Zrotation Xrotation Yrotation
                      End Site
                      {
                        OFFSET 2.6794 -1.54694 1.54692
                      }
                    }
                  }
                }
                JOINT LeftHandIndex1
                {
                  OFFSET 12.2666 -0.231669 2.82206
                  CHANNELS 6 Xposition Yposition Zposition Zrotation Xrotation Yrotation
                  JOINT LeftHandIndex2
                  {
                    OFFSET 3.89197 0 3.87215e-005
                    CHANNELS 6 Xposition Yposition Zposition Zrotation Xrotation Yrotation
                    JOINT LeftHandIndex3
                    {
                      OFFSET 3.41516 0 0
                      CHANNELS 6 Xposition Yposition Zposition Zrotation Xrotation Yrotation
                      End Site
                      {
                        OFFSET 3.07799 0 0
                      }
                    }
                  }
                }
                JOINT LeftHandRing1
                {
                  OFFSET 12.147 0.00989498 -2.21663
                  CHANNELS 6 Xposition Yposition Zposition Zrotation Xrotation Yrotation
                  JOINT LeftHandRing2
                  {
                    OFFSET 3.60119 0 3.51122e-005
                    CHANNELS 6 Xposition Yposition Zposition Zrotation Xrotation Yrotation
                    JOINT LeftHandRing3
                    {
                      OFFSET 3.30732 0 -2.08933e-005
                      CHANNELS 6 Xposition Yposition Zposition Zrotation Xrotation Yrotation
                      End Site
                      {
                        OFFSET 3.66012 0 0
                      }
                    }
                  }
                }
                JOINT LeftHandPinky1
                {
                  OFFSET 10.9082 -0.226365 -4.72582
                  CHANNELS 6 Xposition Yposition Zposition Zrotation Xrotation Yrotation
                  JOINT LeftHandPinky2
                  {
                    OFFSET 4.13665 0 2.68984e-005
                    CHANNELS 6 Xposition Yposition Zposition Zrotation Xrotation Yrotation
                    JOINT LeftHandPinky3
                    {
                      OFFSET 2.59484 0 -3.6009e-005
                      CHANNELS 6 Xposition Yposition Zposition Zrotation Xrotation Yrotation
                      End Site
                      {
                        OFFSET 2.92387 0 1.87321e-005
                      }
                    }
                  }
                }
              }
            }
          }
        }
        JOINT RightShoulder
        {
          OFFSET -6.1057 9.11051 0.705563
          CHANNELS 6 Xposition Yposition Zposition Zrotation Xrotation Yrotation
          JOINT RightArm
          {
            OFFSET -12.655 -0.266021 -2.6009
            CHANNELS 6 Xposition Yposition Zposition Zrotation Xrotation Yrotation
            JOINT RightForeArm
            {
              OFFSET -27.4047 3.28841e-005 0
              CHANNELS 6 Xposition Yposition Zposition Zrotation Xrotation Yrotation
              JOINT RightHand
              {
                OFFSET -27.6145 2.26615e-005 1.83241e-005
                CHANNELS 6 Xposition Yposition Zposition Zrotation Xrotation Yrotation
                JOINT RightHandMiddle1
                {
                  OFFSET -12.7755 0 1.80116e-005
                  CHANNELS 6 Xposition Yposition Zposition Zrotation Xrotation Yrotation
                  JOINT RightHandMiddle2
                  {
                    OFFSET -3.61397 0 0
                    CHANNELS 6 Xposition Yposition Zposition Zrotation Xrotation Yrotation
                    JOINT RightHandMiddle3
                    {
                      OFFSET -3.45976 0 -2.64579e-005
                      CHANNELS 6 Xposition Yposition Zposition Zrotation Xrotation Yrotation
                      End Site
                      {
                        OFFSET -3.68019 0 3.25098e-005
                      }
                    }
                  }
                }
                JOINT RightHandThumb1
                {
                  OFFSET -3.78881 -2.167 3.00309
                  CHANNELS 6 Xposition Yposition Zposition Zrotation Xrotation Yrotation
                  JOINT RightHandThumb2
                  {
                    OFFSET -3.67544 -2.12201 2.12201
                    CHANNELS 6 Xposition Yposition Zposition Zrotation Xrotation Yrotation
                    JOINT RightHandThumb3
                    {
                      OFFSET -3.39436 -1.95975 1.95979
                      CHANNELS 6 Xposition Yposition Zposition Zrotation Xrotation Yrotation
                      End Site
                      {
                        OFFSET -2.6794 -1.54695 1.54692
                      }
                    }
                  }
                }
                JOINT RightHandIndex1
                {
                  OFFSET -12.2666 -0.231673 2.82206
                  CHANNELS 6 Xposition Yposition Zposition Zrotation Xrotation Yrotation
                  JOINT RightHandIndex2
                  {
                    OFFSET -3.89197 0 3.7513e-005
                    CHANNELS 6 Xposition Yposition Zposition Zrotation Xrotation Yrotation
                    JOINT RightHandIndex3
                    {
                      OFFSET -3.41516 0 0
                      CHANNELS 6 Xposition Yposition Zposition Zrotation Xrotation Yrotation
                      End Site
                      {
                        OFFSET -3.07799 0 0
                      }
                    }
                  }
                }
                JOINT RightHandRing1
                {
                  OFFSET -12.147 0.0098909 -2.21663
                  CHANNELS 6 Xposition Yposition Zposition Zrotation Xrotation Yrotation
                  JOINT RightHandRing2
                  {
                    OFFSET -3.60119 0 3.4867e-005
                    CHANNELS 6 Xposition Yposition Zposition Zrotation Xrotation Yrotation
                    JOINT RightHandRing3
                    {
                      OFFSET -3.30732 0 -2.11146e-005
                      CHANNELS 6 Xposition Yposition Zposition Zrotation Xrotation Yrotation
                      End Site
                      {
                        OFFSET -3.66012 0 0
                      }
                    }
                  }
                }
                JOINT RightHandPinky1
                {
                  OFFSET -10.9082 -0.226369 -4.72582
                  CHANNELS 6 Xposition Yposition Zposition Zrotation Xrotation Yrotation
                  JOINT RightHandPinky2
                  {
                    OFFSET -4.13665 0 2.56096e-005
                    CHANNELS 6 Xposition Yposition Zposition Zrotation Xrotation Yrotation
                    JOINT RightHandPinky3
                    {
                      OFFSET -2.59484 0 -3.66612e-005
                      CHANNELS 6 Xposition Yposition Zposition Zrotation Xrotation Yrotation
                      End Site
                      {
                        OFFSET -2.92387 0 1.86957e-005
                      }
                    }
                  }
                }
              }
            }
          }
        }
      }
    }
  }
  JOINT RightUpLeg
  {
    OFFSET -9.12445 -6.6564 -0.0553779
    CHANNELS 6 Xposition Yposition Zposition Zrotation Xrotation Yrotation
    JOINT RightLeg
    {
      OFFSET -0.24468 -40.5954 -0.514528
      CHANNELS 6 Xposition Yposition Zposition Zrotation Xrotation Yrotation
      JOINT RightFoot
      {
        OFFSET 0.244669 -42.0479 -2.06023
        CHANNELS 6 Xposition Yposition Zposition Zrotation Xrotation Yrotation
        JOINT RightToeBase
        {
          OFFSET -0.37336 -10.4922 12.6407
          CHANNELS 6 Xposition Yposition Zposition Zrotation Xrotation Yrotation
          End Site
          {
            OFFSET 0 0 9.99252
          }
        }
      }
    }
  }
  JOINT LeftUpLeg
  {
    OFFSET 9.12445 -6.6564 -0.0553779
    CHANNELS 6 Xposition Yposition Zposition Zrotation Xrotation Yrotation
    JOINT LeftLeg
    {
      OFFSET 0.24468 -40.5954 -0.517041
      CHANNELS 6 Xposition Yposition Zposition Zrotation Xrotation Yrotation
      JOINT LeftFoot
      {
        OFFSET -0.24467 -42.048 -2.05764
        CHANNELS 6 Xposition Yposition Zposition Zrotation Xrotation Yrotation
        JOINT LeftToeBase
        {
          OFFSET 0.37336 -10.4922 12.6407
          CHANNELS 6 Xposition Yposition Zposition Zrotation Xrotation Yrotation
          End Site
          {
            OFFSET 0 0 9.99252
          }
        }
      }
    }
  }
}
MOTION
Frames:	4
Frame Time:	0.0333333
-0.188247 54.5752 -1.59006 22.6388 8.35868 -41.0013 5.64832e-007 9.92346 -1.22733 -9.07036 11.9974 4.14478 -0.000138865 11.6454 -1.42234 -3.34565 9.43418 -0.158406 9.14407e-005 13.3602 -1.62646 -3.34267 9.43352 -0.193623 2.52021e-005 15.0325 0.792905 -2.63826 -2.70605 2.02313 2.37075e-006 10.3218 3.14243 -0.864347 -27.4257 8.50825 6.10582 9.11042 0.705551 5.57911 0.471709 -5.70236 12.655 -0.265934 -2.60092 -31.9813 -12.0369 -75.4047 27.4047 3.91267e-005 6.58811e-006 -7.67579e-006 -1.52901e-006 -28.7811 27.6145 2.89518e-005 1.96466e-005 53.1462 -26.0833 6.46792 12.7755 1.3342e-005 2.04185e-005 -6.54929 -0.0451057 0.788328 3.61397 2.66014e-006 2.46236e-006 -0.0159766 4.12795e-007 0.00193152 3.45976 5.43247e-007 -2.64197e-005 -6.89198e-006 1.05483e-006 1.65561e-006 3.78881 -2.167 3.00309 5.17236 -7.7213 -8.15091 3.67544 -2.12201 2.12201 -4.06646 -2.20586 2.98187 3.39436 -1.95974 1.95979 -0.31366 -3.37818 -0.894396 12.2666 -0.231669 2.82206 -6.56526 -0.0453311 0.790236 3.89197 1.68687e-006 3.87215e-005 -2.82687e-005 -2.39255e-006 -2.21275e-006 3.41516 5.74911e-007 -8.77053e-006 -6.40109e-006 2.8023e-006 1.8367e-006 12.147 0.00989498 -2.21663 -6.56526 -0.0453311 0.790236 3.60119 1.51294e-006 3.51122e-005 -2.29733e-006 3.14863e-006 5.51871e-007 3.30732 4.53174e-006 -2.08933e-005 -5.46274e-006 1.05483e-006 4.11095e-007 10.9082 -0.226365 -4.72582 -6.05598 -0.0202547 4.84489 4.13665 2.29995e-006 2.68984e-005 -0.50957 0.0180399 -4.05428 2.59484 5.93904e-008 -3.6009e-005 -7.83032e-006 3.62184e-007 3.08122e-006 -6.1057 9.11051 0.705563 -4.30649 1.33697 13.9777 -12.655 -0.266021 -2.6009 36.4646 -18.4251 95.4125 -27.4047 3.28841e-005 5.27564e-006 -1.98554e-006 1.28992e-006 0.0411181 -27.6145 2.26615e-005 1.83241e-005 -36.2172 -13.8162 26.2092 -12.7755 8.94577e-006 1.80116e-005 7.30475 -0.0566415 -0.887463 -3.61397 2.7565e-006 3.08034e-006 1.58341e-005 -4.7645e-006 -7.99953e-006 -3.45976 -1.97218e-007 -2.64579e-005 5.13954e-006 5.63512e-007 -5.01176e-007 -3.78881 -2.167 3.00309 -1.06629 -8.56524 5.84191 -3.67544 -2.12201 2.12201 -8.131 7.75944 -1.59375 -3.39436 -1.95975 1.95979 -6.1312 -0.429887 3.31058 -12.2666 -0.231673 2.82206 7.30475 -0.0566415 -0.887463 -3.89197 -7.20555e-008 3.7513e-005 1.58341e-005 -4.7645e-006 -7.99953e-006 -3.41516 2.52991e-007 -8.60584e-006 5.13954e-006 5.63512e-007 -5.01176e-007 -12.147 0.0098909 -2.21663 7.30475 -0.0566415 -0.887463 -3.60119 2.38565e-007 3.4867e-005 1.58341e-005 -4.7645e-006 -7.99953e-006 -3.30732 3.76018e-006 -2.11146e-005 5.13954e-006 5.63512e-007 -5.01176e-007 -10.9082 -0.226369 -4.72582 7.30475 -0.0566415 -0.887463 -4.13665 4.31063e-007 2.56096e-005 1.58341e-005 -4.7645e-006 -7.99953e-006 -2.59484 -9.57149e-007 -3.66612e-005 5.13954e-006 5.63512e-007 -5.01176e-007 -9.12445 -6.6564 -0.0553779 -33.2675 -45.01 -31.7883 -0.24468 -40.5954 -0.514528 -175.424 58.6081 178.132 0.244669 -42.0479 -2.06023 29.95 15.1141 7.7521 -0.37336 -10.4922 12.6407 -17.1367 -71.3512 -14.8732 9.12445 -6.6564 -0.0553779 134.881 -58.7985 146.185 0.24468 -40.5954 -0.517041 130.641 89.7522 -122.732 -0.24467 -42.048 -2.05764 -6.14719 7.02761 0.648541 0.37336 -10.4922 12.6407 6.05505e-007 -0.546304 2.79103e-006 
-0.235495 54.5687 -1.65063 22.6698 8.50584 -41.0527 5.64832e-007 9.92346 -1.22733 -9.19592 11.9854 4.11858 -0.000138865 11.6454 -1.42234 -3.41102 9.43656 -0.155252 9.14407e-005 13.3602 -1.62646 -3.40955 9.43568 -0.182839 2.52021e-005 15.0325 0.792905 -2.49338 -2.58189 1.9803 2.37075e-006 10.3218 3.14243 -0.83905 -27.4264 8.38777 6.10582 9.11042 0.705551 5.46781 0.478126 -5.59696 12.655 -0.265934 -2.60092 -31.2191 -12.0635 -75.3642 27.4047 3.91267e-005 6.58811e-006 8.42531e-007 -1.97252e-006 -27.8651 27.6145 2.89518e-005 1.96466e-005 53.0758 -26.5401 6.45868 12.7755 1.3342e-005 2.04185e-005 -7.67954 -0.0620018 0.92364 3.61397 2.66014e-006 2.46236e-006 -0.0159779 5.03104e-006 0.00193109 3.45976 5.43247e-007 -2.64197e-005 -1.15779e-005 -2.45675e-006 4.51105e-006 3.78881 -2.167 3.00309 5.2559 -7.42226 -7.95962 3.67544 -2.12201 2.12201 -4.06648 -2.20587 2.98185 3.39436 -1.95974 1.95979 -0.313669 -3.37818 -0.894393 12.2666 -0.231669 2.82206 -7.69552 -0.062253 0.925539 3.89197 1.68687e-006 3.87215e-005 -1.4652e-005 -8.01859e-006 4.25928e-007 3.41516 5.74911e-007 -8.77053e-006 -6.87129e-006 2.88548e-006 1.59165e-006 12.147 0.00989498 -2.21663 -7.69552 -0.062253 0.925539 3.60119 1.51294e-006 3.51122e-005 -6.36111e-015 -1.98785e-015 3.18055e-015 3.30732 4.53174e-006 -2.08933e-005 -6.4595e-006 1.1082e-006 1.8112e-006 10.9082 -0.226365 -4.72582 -7.1863 -0.0359888 4.98035 4.13665 2.29995e-006 2.68984e-005 -0.509582 0.0180339 -4.05428 2.59484 5.93904e-008 -3.6009e-005 -5.5102e-006 1.1082e-006 3.92011e-007 -6.1057 9.11051 0.705563 -4.22898 1.38714 14.166 -12.655 -0.266021 -2.6009 36.4243 -18.421 95.4039 -27.4047 3.28841e-005 5.27564e-006 2.96805e-006 -2.33518e-006 0.0246992 -27.6145 2.26615e-005 1.83241e-005 -36.3637 -13.9168 25.9989 -12.7755 8.94577e-006 1.80116e-005 7.30475 -0.0566466 -0.88747 -3.61397 2.7565e-006 3.08034e-006 4.42996e-005 -4.88964e-006 7.87476e-006 -3.45976 -1.97218e-007 -2.64579e-005 6.24903e-006 5.38653e-006 -5.37779e-006 -3.78881 -2.167 3.00309 -1.06629 -8.56524 5.8419 -3.67544 -2.12201 2.12201 -8.13098 7.75945 -1.59373 -3.39436 -1.95975 1.95979 -6.13121 -0.429887 3.31056 -12.2666 -0.231673 2.82206 7.30475 -0.0566466 -0.88747 -3.89197 -7.20555e-008 3.7513e-005 4.38652e-005 -7.30897e-006 6.07987e-006 -3.41516 2.52991e-007 -8.60584e-006 9.78337e-006 8.61653e-007 -1.06356e-006 -12.147 0.0098909 -2.21663 7.30475 -0.0566466 -0.88747 -3.60119 2.38565e-007 3.4867e-005 4.42996e-005 -4.88964e-006 7.87476e-006 -3.30732 3.76018e-006 -2.11146e-005 6.24903e-006 5.38653e-006 -5.37779e-006 -10.9082 -0.226369 -4.72582 7.30475 -0.0566466 -0.88747 -4.13665 4.31063e-007 2.56096e-005 2.27485e-005 -4.07203e-006 6.94732e-006 -2.59484 -9.57149e-007 -3.66612e-005 8.63218e-006 -1.27046e-006 -1.638e-006 -9.12445 -6.6564 -0.0553779 -33.1715 -45.2044 -31.8898 -0.24468 -40.5954 -0.514528 -175.436 58.6291 178.209 0.244669 -42.0479 -2.06023 29.7468 15.1441 7.74409 -0.37336 -10.4922 12.6407 -17.9404 -71.3961 -15.5885 9.12445 -6.6564 -0.0553779 135.61 -58.8446 146.487 0.24468 -40.5954 -0.517041 107.699 89.7212 -99.4865 -0.24467 -42.048 -2.05764 -6.37044 7.23321 0.681624 0.37336 -10.4922 12.6407 -3.02596e-006 -0.593757 -4.1892e-007 
-0.293181 54.5736 -1.69943 22.6859 8.67035 -41.0871 5.64832e-007 9.92346 -1.22733 -9.31243 11.9282 4.13645 -0.000138865 11.6454 -1.42234 -3.46632 9.41329 -0.121419 9.14407e-005 13.3602 -1.62646 -3.46762 9.41187 -0.138104 2.52021e-005 15.0325 0.792905 -2.34192 -2.34568 1.92963 2.37075e-006 10.3218 3.14243 -0.767223 -27.4359 8.2322 6.10582 9.11042 0.705551 5.37526 0.489029 -5.61566 12.655 -0.265934 -2.60092 -30.4913 -12.0427 -75.2839 27.4047 3.91267e-005 6.58811e-006 -3.73291e-006 -2.26882e-006 -26.8389 27.6145 2.89518e-005 1.96466e-005 52.981 -27.0761 6.39922 12.7755 1.3342e-005 2.04185e-005 -8.13472 -0.0695438 0.978013 3.61397 2.66014e-006 2.46236e-006 -0.0159849 -1.09183e-005 0.00193432 3.45976 5.43247e-007 -2.64197e-005 -6.33999e-006 -6.62439e-006 1.22057e-005 3.78881 -2.167 3.00309 5.30304 -7.25561 -7.85836 3.67544 -2.12201 2.12201 -4.06648 -2.20588 2.98187 3.39436 -1.95974 1.95979 -0.313641 -3.37818 -0.894396 12.2666 -0.231669 2.82206 -8.1507 -0.0698276 0.979927 3.89197 1.68687e-006 3.87215e-005 1.09786e-006 6.39704e-006 1.10686e-005 3.41516 5.74911e-007 -8.77053e-006 -1.20169e-005 1.2429e-006 2.15827e-006 12.147 0.00989498 -2.21663 -8.1507 -0.0698276 0.979927 3.60119 1.51294e-006 3.51122e-005 1.09786e-006 6.39704e-006 1.10686e-005 3.30732 4.53174e-006 -2.08933e-005 -1.20169e-005 1.2429e-006 2.15827e-006 10.9082 -0.226365 -4.72582 -7.64151 -0.043073 5.03478 4.13665 2.29995e-006 2.68984e-005 -0.509578 0.0180394 -4.05426 2.59484 5.93904e-008 -3.6009e-005 -3.10048e-006 -6.62439e-006 1.23436e-005 -6.1057 9.11051 0.705563 -4.06847 1.48253 14.4379 -12.655 -0.266021 -2.6009 36.1661 -18.4635 95.1594 -27.4047 3.28841e-005 5.27564e-006 -9.51126e-006 9.56491e-007 0.0184462 -27.6145 2.26615e-005 1.83241e-005 -36.4227 -14.1051 25.8681 -12.7755 8.94577e-006 1.80116e-005 7.30477 -0.0566502 -0.887449 -3.61397 2.7565e-006 3.08034e-006 1.92949e-005 1.26865e-005 -2.06832e-005 -3.45976 -1.97218e-007 -2.64579e-005 2.27016e-006 2.99373e-006 3.68764e-008 -3.78881 -2.167 3.00309 -1.0663 -8.56525 5.8419 -3.67544 -2.12201 2.12201 -8.13099 7.75946 -1.59375 -3.39436 -1.95975 1.95979 -6.13119 -0.429902 3.3106 -12.2666 -0.231673 2.82206 7.30477 -0.0566502 -0.887449 -3.89197 -7.20555e-008 3.7513e-005 8.99519e-005 1.13451e-005 -1.91997e-005 -3.41516 2.52991e-007 -8.60584e-006 3.31865e-006 5.77025e-007 1.24523e-006 -12.147 0.0098909 -2.21663 7.30477 -0.0566502 -0.887449 -3.60119 2.38565e-007 3.4867e-005 4.88149e-005 1.03682e-007 -1.19016e-005 -3.30732 3.76018e-006 -2.11146e-005 -4.97316e-006 9.51283e-006 -7.93575e-006 -10.9082 -0.226369 -4.72582 7.30477 -0.0566502 -0.887449 -4.13665 4.31063e-007 2.56096e-005 1.25742e-005 9.1157e-006 -2.14252e-005 -2.59484 -9.57149e-007 -3.66612e-005 3.31865e-006 5.77025e-007 1.24523e-006 -9.12445 -6.6564 -0.0553779 -33.0015 -45.3989 -31.9564 -0.24468 -40.5954 -0.514528 -175.441 58.6635 178.289 0.244669 -42.0479 -2.06023 29.5474 15.1067 7.725 -0.37336 -10.4922 12.6407 -18.8113 -71.3819 -16.3535 9.12445 -6.6564 -0.0553779 136.195 -58.8476 146.674 0.24468 -40.5954 -0.517041 91.1078 89.7195 -82.7227 -0.24467 -42.048 -2.05764 -6.55648 7.40485 0.709214 0.37336 -10.4922 12.6407 -1.23305e-006 -0.632198 -6.66857e-007 
-0.355987 54.5817 -1.73884 22.7009 8.85787 -41.1038 5.64832e-007 9.92346 -1.22733 -9.39734 11.8265 4.19226 -0.000138865 11.6454 -1.42234 -3.50193 9.36391 -0.0638165 9.14407e-005 13.3602 -1.62646 -3.50658 9.36169 -0.0690338 2.52021e-005 15.0325 0.792905 -2.22046 -2.03094 1.87711 2.37075e-006 10.3218 3.14243 -0.714894 -27.4174 8.04211 6.10582 9.11042 0.705551 5.27755 0.506775 -5.75314 12.655 -0.265934 -2.60092 -29.8336 -11.9453 -75.228 27.4047 3.91267e-005 6.58811e-006 -5.77252e-006 -3.79281e-006 -25.6764 27.6145 2.89518e-005 1.96466e-005 52.8717 -27.7411 6.24477 12.7755 1.3342e-005 2.04185e-005 -8.18251 -0.0703539 0.983748 3.61397 2.66014e-006 2.46236e-006 -0.0159951 -1.62187e-005 0.001924 3.45976 5.43247e-007 -2.64197e-005 -5.64566e-006 8.6547e-006 -8.01191e-006 3.78881 -2.167 3.00309 5.26403 -7.40064 -7.96434 3.67544 -2.12201 2.12201 -4.06648 -2.20587 2.98187 3.39436 -1.95974 1.95979 -0.313659 -3.3782 -0.894409 12.2666 -0.231669 2.82206 -8.1985 -0.0706341 0.985656 3.89197 1.68687e-006 3.87215e-005 -4.30116e-006 7.14348e-006 -9.13694e-006 3.41516 5.74911e-007 -8.77053e-006 -3.73231e-006 1.19617e-006 -8.78987e-006 12.147 0.00989498 -2.21663 -8.1985 -0.0706341 0.985656 3.60119 1.51294e-006 3.51122e-005 -4.30116e-006 7.14348e-006 -9.13694e-006 3.30732 4.53174e-006 -2.08933e-005 -3.73231e-006 1.19617e-006 -8.78987e-006 10.9082 -0.226365 -4.72582 -7.68931 -0.0438379 5.04053 4.13665 2.29995e-006 2.68984e-005 -0.509587 0.0180391 -4.05429 2.59484 5.93904e-008 -3.6009e-005 -2.40629e-006 6.51338e-006 -7.87674e-006 -6.1057 9.11051 0.705563 -3.84957 1.61003 14.7592 -12.655 -0.266021 -2.6009 35.6927 -18.5552 94.693 -27.4047 3.28841e-005 5.27564e-006 -1.18953e-005 -2.18008e-007 0.016205 -27.6145 2.26615e-005 1.83241e-005 -36.3814 -14.3654 25.8522 -12.7755 8.94577e-006 1.80116e-005 7.30476 -0.0566495 -0.887461 -3.61397 2.7565e-006 3.08034e-006 1.68391e-005 2.42468e-006 -3.98948e-006 -3.45976 -1.97218e-007 -2.64579e-005 7.23343e-006 3.98503e-006 3.00818e-006 -3.78881 -2.167 3.00309 -1.06629 -8.56525 5.84191 -3.67544 -2.12201 2.12201 -8.13099 7.75945 -1.59375 -3.39436 -1.95975 1.95979 -6.13121 -0.429915 3.3106 -12.2666 -0.231673 2.82206 7.30476 -0.0566495 -0.887461 -3.89197 -7.20555e-008 3.7513e-005 2.25427e-005 1.00843e-006 -4.45225e-006 -3.41516 2.52991e-007 -8.60584e-006 7.33439e-006 5.83081e-006 1.26506e-006 -12.147 0.0098909 -2.21663 7.30476 -0.0566495 -0.887461 -3.60119 2.38565e-007 3.4867e-005 1.68391e-005 2.42468e-006 -3.98948e-006 -3.30732 3.76018e-006 -2.11146e-005 7.23343e-006 3.98503e-006 3.00818e-006 -10.9082 -0.226369 -4.72582 7.30476 -0.0566495 -0.887461 -4.13665 4.31063e-007 2.56096e-005 1.68391e-005 2.42468e-006 -3.98948e-006 -2.59484 -9.57149e-007 -3.66612e-005 7.23343e-006 3.98503e-006 3.00818e-006 -9.12445 -6.6564 -0.0553779 -32.765 -45.6087 -31.9701 -0.24468 -40.5954 -0.514528 -175.438 58.6976 178.369 0.244669 -42.0479 -2.06023 29.3642 14.9697 7.80535 -0.37336 -10.4922 12.6407 -20.1177 -71.2541 -17.4808 9.12445 -6.6564 -0.0553779 136.599 -58.7731 146.775 0.24468 -40.5954 -0.517041 74.3206 89.745 -65.9105 -0.24467 -42.048 -2.05764 -6.66785 7.54276 0.727431 0.37336 -10.4922 12.6407 8.08951e-007 -0.664392 9.56454e-006 
